<?xml version="1.0" encoding="utf-8"?>

<!DOCTYPE svg PUBLIC "-//W3C//DTD SVG 1.1//EN" "http://www.w3.org/Graphics/SVG/1.1/DTD/svg11.dtd">
<!-- Uploaded to: SVG Repo, www.svgrepo.com, Generator: SVG Repo Mixer Tools -->
<svg height="120px" width="120px" version="1.1" id="_x32_" xmlns="http://www.w3.org/2000/svg" xmlns:xlink="http://www.w3.org/1999/xlink" 
	 viewBox="0 0 512 512"  xml:space="preserve">
<style type="text/css">
	.st0{fill:#adff2f;}
</style>
<g>
	<path class="st0" d="M467.93,173.644c-27.015-27.006-70.82-27.015-97.834,0c-13.376,13.368-20.106,30.828-20.253,48.353
		c-0.016,2.956-0.016,4.606-1.078,7.268c-1.078,2.671-4.394,5.521-7.17,7.497c-18.93,13.443-36.112,20.433-51.106,23.536
		c-1.469,24.172,9.065,38.513,9.588,39.199l2.075,2.613c14.781-6.533,35.458-14.512,53.245-22.956
		c5.227-2.474,11.057-4.525,14.863-3.863c3.806,0.662,9.882,4.883,15.5,7.97c26.28,14.405,59.926,10.486,82.171-11.776
		C494.944,244.472,494.944,200.666,467.93,173.644z M445.456,249.012c-14.602,14.602-38.284,14.602-52.886,0
		c-14.618-14.602-14.618-38.285,0-52.886c14.602-14.602,38.284-14.602,52.886,0C460.057,210.727,460.057,234.411,445.456,249.012z"
		/>
	<path class="st0" d="M299.047,194.215c1.976-2.785,4.834-6.1,7.497-7.162c2.662-1.078,4.312-1.07,7.268-1.095
		c17.509-0.146,34.985-6.884,48.346-20.244c27.014-27.023,27.014-70.819,0-97.843c-9.245-9.236-20.45-15.32-32.291-18.235
		C328.218,17.82,318.091,0,318.091,0l-22.474,6.615c8.428,15.655,8.085,37.828,7.954,41.673
		c-14.372,2.018-28.206,8.542-39.264,19.583c-22.246,22.254-26.165,55.9-11.76,82.18c3.087,5.619,7.301,11.694,7.971,15.5
		c0.653,3.806-1.389,9.62-3.871,14.855c-12.168,25.651-23.406,57.369-30.674,68.606c0,0-162.643,189.078-182.471,214.206
		c-19.828,25.12-23.797,37.01-15.86,44.948c7.922,7.938,19.828,3.969,44.948-15.86c25.12-19.844,214.206-182.471,214.206-182.471
		S249.771,263.565,299.047,194.215z M286.797,90.346c14.602-14.602,38.268-14.602,52.887,0c14.602,14.61,14.602,38.292,0,52.887
		c-14.618,14.609-38.285,14.609-52.887,0.007C272.18,128.638,272.18,104.956,286.797,90.346z M248.448,305.867
		c-5.112,5.112-13.409,5.112-18.505,0c-5.112-5.112-5.112-13.394,0-18.506c5.096-5.112,13.393-5.112,18.505,0
		S253.56,300.755,248.448,305.867z"/>
</g>
</svg>